<svg viewBox="0 0 109 124" fill="none" xmlns="http://www.w3.org/2000/svg">
  <path d="M95.758 23.961c-.094-.622-.529-.948-1.018-.983-.489-.036-11.142-.184-11.142-.184s-7.38-7.163-8.199-7.982c-.819-.819-2.422-.574-3.045-.377-.011.004-1.604.496-4.286 1.323-2.561-7.383-7.077-14.164-15.019-14.164-.22 0-.444.011-.668.025C50.4.327 48.154 0 46.183 0 28.46 0 20.01 14.049 17.204 23.174c-7.34 2.274-12.541 3.885-13.165 4.089-4.095 1.285-4.222 1.412-4.757 5.276C-1.029 35.067 0 109.618 0 109.618L74.15 124l40.725-10.23s-19.024-89.188-19.118-89.809zM67.19 19.276l-10.326 3.195c-.001-1.967-.223-4.846-.847-7.586 6.36 1.23 9.463 6.447 11.173 4.391zM52.466 24.22l-20.93 6.479c2.023-7.795 5.882-11.694 10.973-13.088 2.21 2.66 4.005 6.447 9.957 6.609zM46.244 3.977c.729 0 1.416.12 2.068.345-5.282 2.485-10.94 8.76-13.335 21.273l-11.073 3.427C27.178 18.606 33.568 3.977 46.244 3.977z" fill="#95BF47"/>
  <path d="M94.74 22.978c-.489-.036-11.142-.184-11.142-.184s-7.38-7.163-8.199-7.982c-.306-.306-.721-.466-1.174-.527L74.15 124l40.725-10.23s-19.024-89.188-19.118-89.809c-.094-.622-.529-.948-1.018-.983z" fill="#5E8E3E"/>
  <path d="M52.012 41.725l-4.344 16.239s-4.797-2.561-10.664-2.561c-8.628 0-9.057 5.411-9.057 6.774 0 7.444 19.397 10.3 19.397 27.756 0 13.738-8.714 22.583-20.47 22.583-14.103 0-21.319-8.778-21.319-8.778l3.773-12.466s7.413 6.367 13.676 6.367c4.094 0 5.761-3.225 5.761-5.581 0-9.729-15.904-10.157-15.904-26.119 0-13.433 9.648-26.435 29.122-26.435 7.508 0 10.029 2.221 10.029 2.221z" fill="#fff"/>
</svg>

