<svg viewBox="0 0 100 30" fill="none" xmlns="http://www.w3.org/2000/svg">
  <path d="M13.7 0v18.4c0 2.2-1.4 3.6-3.5 3.6s-3.5-1.4-3.5-3.6V0H0v18.8C0 24.9 4.6 30 10.2 30c5.6 0 10.2-5.1 10.2-11.2V0h-6.7z" fill="currentColor"/>
  <path d="M32.7 0c-5.8 0-10.5 5.1-10.5 11.3v7.5c0 6.2 4.7 11.3 10.5 11.3 3.3 0 6.2-1.6 8.1-4v3.5h6.7V0h-6.7v3.5c-1.9-2.4-4.8-4-8.1-4zm1.5 6.7c2.6 0 4.8 2 4.8 4.5v7.5c0 2.6-2.2 4.5-4.8 4.5s-4.8-2-4.8-4.5v-7.5c0-2.5 2.2-4.5 4.8-4.5z" fill="currentColor"/>
  <path d="M67.3 11.3c0-6.2-4.7-11.3-10.5-11.3-3.3 0-6.2 1.6-8.1 4V0h-6.7v30h6.7v-3.5c1.9 2.4 4.8 4 8.1 4 5.8 0 10.5-5.1 10.5-11.3v-7.9zm-6.7 7.5c0 2.6-2.2 4.5-4.8 4.5s-4.8-2-4.8-4.5v-7.5c0-2.6 2.2-4.5 4.8-4.5s4.8 2 4.8 4.5v7.5z" fill="currentColor"/>
  <path d="M87.4 11.3c0-6.2-4.2-11.3-9.4-11.3-2.9 0-5.5 1.4-7.2 3.6V0h-6.7v30h6.7V11.8c0-2.8 2-5.1 4.5-5.1s4.5 2.3 4.5 5.1V30H87v-7.5h.1c.2-3.8.3-7.5.3-11.2z" fill="currentColor"/>
  <path d="M100 11.3C100 5.1 95.3 0 89.5 0h-2.1v6.7h2.1c2.6 0 4.8 2 4.8 4.5v7.5c0 2.6-2.2 4.5-4.8 4.5h-2.1V30h2.1c5.8 0 10.5-5.1 10.5-11.3v-7.4z" fill="currentColor"/>
</svg>

